<svg preserveAspectRatio="none" width="100%" height="100%" overflow="visible" style="display: block;" viewBox="0 0 173.333 156.665" fill="none" xmlns="http://www.w3.org/2000/svg">
<g id="Logo">
<path id="&#216;&#168;" d="M158.464 0.0195241C161.399 -0.214253 163.708 1.68296 165.246 4.01512C169.588 10.6577 170.822 19.2426 172.044 26.9492C173.417 35.615 173.855 46.3689 172.556 55.007C170.037 71.767 159.285 86.1023 145.709 95.8179C142.18 98.3834 138.496 100.725 134.676 102.83C120.179 110.798 94.982 117.963 78.3545 118.062L70.8012 118.141C64.2043 118.178 57.8674 118.133 51.3427 116.985C46.9429 116.144 42.5016 115.293 38.1906 114.072C36.5649 113.612 34.916 112.853 33.3318 112.287C23.8898 108.909 14.8684 103.03 8.84886 94.8985C3.89426 88.2049 1.35059 79.5917 0.162419 71.431C-0.148122 69.2981 0.0941159 66.585 0.030042 64.3928C-0.0630208 61.2128 0.0722205 57.9556 0.624998 54.8235C1.00733 52.6781 1.46791 50.4218 1.95462 48.3013C4.32063 37.9919 14.5104 16.3434 27.0159 16.5421C27.3861 16.7706 27.5168 16.8292 27.8186 17.1564C27.9102 17.4531 27.8487 17.7024 27.7122 17.9791C23.2578 27.0103 17.4787 42.9209 22.4993 52.5184C26.8347 60.8057 42.7425 65.5567 51.5649 65.8912C52.7568 65.9363 54.0439 66.2027 55.2432 66.03C62.6252 64.9425 69.4605 59.1111 71.5133 52.0717C74.9642 52.9816 78.3901 54.0142 81.9683 54.0923C86.2804 54.1865 90.4919 54.2175 94.7145 53.2069C95.848 52.9358 98.0228 52.1599 99.0218 52.1645C99.1947 52.3128 99.196 52.2978 99.2532 52.5139C100.209 56.0917 103.193 60.0541 106.157 62.2397C111.425 66.1256 117.267 66.3924 123.472 65.5248C130.886 64.5276 137.606 62.6979 144.355 59.469C150.29 56.6305 151.33 55.6666 151.535 49.0065C151.841 39.0245 147.612 30.2098 145.442 20.6868C145.139 19.3537 145.271 17.4781 145.284 16.1148C145.403 12.6504 147.622 9.14577 149.624 6.41248C151.571 3.75485 155.072 0.557745 158.464 0.0195241Z" fill="var(--fill-0, #723DEE)"/>
<path id="Smile" d="M75.5681 60.2029C77.1432 60.4185 77.4855 61.8893 78.5827 62.9073C81.9874 66.0661 88.4825 66.1044 91.8953 62.9436C92.5472 62.4202 93.3758 60.6005 94.2119 60.4133C96.9167 59.807 96.1067 62.5261 95.3391 63.7124C90.6337 69.8628 78.3565 69.9642 74.3932 62.4839C73.8446 61.4481 74.4945 60.5589 75.5681 60.2029Z" fill="var(--fill-0, #111F5B)"/>
<path id="Dot" d="M85.6484 120.964C90.9087 121.105 100.446 132.221 103.582 136.454C104.652 138.43 103.863 140.51 102.589 141.955C99.8554 145.054 89.4182 156.668 85.5178 156.665C84.4827 156.61 83.5533 156.013 82.7193 155.445C79.9942 153.591 67.6465 142.028 67.2368 139.416C67.0297 138.096 67.2531 136.988 68.0382 135.912C70.6652 132.313 79.202 123.777 83.0817 121.709C83.929 121.257 84.7128 121.108 85.6484 120.964Z" fill="var(--fill-0, #723DEE)"/>
<g id="Eyes">
<path id="Vector" d="M52.5969 31.9273C60.9033 31.0885 68.3286 37.1137 69.2183 45.415C70.108 53.7161 64.1283 61.178 55.8328 62.1186C47.4651 63.0673 39.9239 57.0243 39.0265 48.6509C38.129 40.2775 44.2182 32.7735 52.5969 31.9273Z" fill="var(--fill-0, #111F5B)"/>
<path id="Vector_2" d="M49.5983 35.8566C57.5134 35.165 56.8559 45.8774 49.1202 47.108C41.1986 47.5511 41.9801 37.048 49.5983 35.8566Z" fill="var(--fill-0, #FFFEFE)"/>
<path id="Vector_3" d="M62.0763 49.2788C63.043 49.03 64.0687 49.3253 64.755 50.0502C65.4413 50.7751 65.68 51.8154 65.3787 52.767C65.0773 53.7187 64.2832 54.4318 63.3047 54.6295C61.8458 54.9244 60.4176 54.0031 60.0845 52.5524C59.7515 51.1017 60.6348 49.6498 62.0763 49.2788Z" fill="var(--fill-0, #FFFEFE)"/>
<path id="Vector_4" d="M56.8406 45.0773C57.4273 44.8187 58.1129 45.0788 58.3805 45.6614C58.6481 46.2439 58.3987 46.9334 57.8202 47.21C57.438 47.3928 56.987 47.3553 56.6403 47.1122C56.2934 46.869 56.1046 46.4578 56.146 46.0361C56.1875 45.6146 56.4531 45.2481 56.8406 45.0773Z" fill="var(--fill-0, #FFFEFE)"/>
<path id="Vector_5" d="M115.015 31.957C123.291 31.2299 130.607 37.3111 131.403 45.5811C132.201 53.8511 126.182 61.2171 117.918 62.0837C109.556 62.9606 102.082 56.8531 101.276 48.484C100.47 40.1148 106.64 32.6928 115.015 31.957Z" fill="var(--fill-0, #111F5B)"/>
<path id="Vector_6" d="M111.805 35.8651C119.334 35.6623 118.662 45.61 111.078 47.1609C102.607 47.4323 104.358 36.5676 111.805 35.8651Z" fill="var(--fill-0, #FFFEFE)"/>
<path id="Vector_7" d="M124.414 48.5476C125.383 48.3256 126.396 48.6458 127.06 49.3842C127.726 50.1225 127.938 51.1632 127.617 52.1036C127.296 53.0441 126.49 53.7367 125.512 53.9135C124.048 54.1784 122.641 53.2255 122.342 51.7676C122.044 50.3097 122.963 48.88 124.414 48.5476Z" fill="var(--fill-0, #FFFEFE)"/>
<path id="Vector_8" d="M119.075 44.6989C119.481 44.5515 119.935 44.638 120.258 44.9244C120.582 45.2107 120.722 45.651 120.624 46.0717C120.527 46.4923 120.207 46.8259 119.792 46.9409C119.182 47.1097 118.547 46.7666 118.355 46.1641C118.163 45.5615 118.48 44.9147 119.075 44.6989Z" fill="var(--fill-0, #FFFEFE)"/>
</g>
<g id="Eyebrows">
<path id="Vector_9" d="M55.4594 14.6142C60.2556 13.928 65.0989 20.4409 59.597 22.4245C58.2326 22.9163 54.5228 22.8127 52.8505 23.0815C49.0758 23.6885 46.0021 25.0962 42.4919 26.3362C41.3023 27 38.5673 26.8631 37.5199 25.9976C35.8875 24.6486 36.1806 22.2952 37.4774 20.8224C40.8495 16.992 46.3502 15.6737 51.1703 14.7758C52.3265 14.5603 54.0093 14.7999 55.229 14.6454L55.4594 14.6142Z" fill="var(--fill-0, #111F5B)"/>
<path id="Vector_10" d="M112.836 14.8116C119.323 14.4279 128.618 15.8349 133.027 21.527C133.736 22.4417 133.675 23.4711 133.639 24.5697C133.01 25.6998 132.65 25.8681 131.608 26.6019C130.393 26.7637 129.964 26.7161 128.776 26.5872C127.478 26.5519 125.297 25.5736 123.998 25.1266C121.57 24.2909 118.314 23.159 115.784 22.8227C114.131 22.6028 111.401 22.8467 109.678 22.0496C109.299 21.8739 108.761 21.3174 108.461 21.0172C107.233 17.5599 109.796 15.5676 112.836 14.8116Z" fill="var(--fill-0, #111F5B)"/>
</g>
</g>
</svg>
